<svg xmlns="http://www.w3.org/2000/svg" version="1.1" xmlns:xlink="http://www.w3.org/1999/xlink" xmlns:svgjs="http://svgjs.dev/svgjs" width="2000" height="510" viewBox="0 0 2000 510"><g transform="matrix(1,0,0,1,-1.2121212121213603,0.5924545145662421)"><svg viewBox="0 0 396 101" data-background-color="#ffffff" preserveAspectRatio="xMidYMid meet" height="510" width="2000" xmlns="http://www.w3.org/2000/svg" xmlns:xlink="http://www.w3.org/1999/xlink"><g id="tight-bounds" transform="matrix(1,0,0,1,0.24000000000003752,-0.11732922739449236)"><svg viewBox="0 0 395.5199999999999 101.23465845478898" height="101.23465845478898" width="395.5199999999999"><g><svg viewBox="0 0 613.4335024104357 157.01034360144985" height="101.23465845478898" width="395.5199999999999"><g></g><g transform="matrix(1,0,0,1,217.9135024104358,21.69969292899922)"><svg viewBox="0 0 395.52 113.61095774345141" height="113.61095774345141" width="395.52"><g id="textblocktransform"><svg viewBox="0 0 395.52 113.61095774345141" height="113.61095774345141" width="395.52" id="textblock"><g><svg viewBox="0 0 395.52 63.847690309171206" height="63.847690309171206" width="395.52"><g transform="matrix(1,0,0,1,0,0)"><svg width="395.52" viewBox="3.98 -39.5 283.25 45.51" height="63.847690309171206" data-palette-color="url(#c702d91e-f590-4653-8d77-33b599a3d1d8)"><g class="wordmark-text-0" data-fill-palette-color="primary" id="text-0"></g></svg></g></svg></g><g transform="matrix(1,0,0,1,0,78.9205976465991)"><svg viewBox="0 0 232.96128000000002 34.6903600968523" height="34.6903600968523" width="232.96128000000002"><g transform="matrix(1,0,0,1,0,0)"><svg width="232.96128000000002" viewBox="-0.85 -38 325.18 49.199999999999996" height="34.6903600968523" data-palette-color="#375a82"><g class="slogan-text-1" data-fill-palette-color="secondary" id="text-1"><path d="M58.8 0L52.4 0 52.4-34.85 58.8-34.85 58.8 0ZM72.94 0L66.55 0 66.55-24.9 72.3-24.9 72.44-21.6Q73.42-23.1 75.16-24.3 76.9-25.5 79.8-25.5L79.8-25.5Q82.32-25.5 84-24.38 85.67-23.25 86.52-21.2L86.52-21.2Q87.47-22.78 89.26-24.14 91.05-25.5 94.25-25.5L94.25-25.5Q97.99-25.5 99.85-23.1 101.69-20.7 101.69-16.45L101.69-16.45 101.69 0 95.35 0 95.35-15.8Q95.35-17.88 94.55-19.16 93.75-20.45 91.94-20.45L91.94-20.45Q90.19-20.45 88.77-19.16 87.35-17.88 87.35-15.8L87.35-15.8 87.35 0 80.94 0 80.94-15.8Q80.94-17.88 80.03-19.21 79.12-20.55 77.35-20.55L77.35-20.55Q75.55-20.55 74.25-19.21 72.94-17.88 72.94-15.8L72.94-15.8 72.94 0ZM113.89 0.7L113.89 0.7Q111.59 0.7 110.08-0.33 108.57-1.35 107.83-3.05 107.09-4.75 107.09-6.8L107.09-6.8Q107.09-7.95 107.68-9.33 108.27-10.7 109.77-11.95 111.27-13.2 113.99-14 116.72-14.8 120.99-14.8L120.99-14.8 120.99-15.95Q120.99-17.8 120.1-19.03 119.22-20.25 116.54-20.25L116.54-20.25Q114.59-20.25 112.73-19.59 110.87-18.93 109.99-17.95L109.99-17.95 107.99-22.75Q109.49-23.78 112.01-24.64 114.52-25.5 117.59-25.5L117.59-25.5Q121.29-25.5 123.34-24.38 125.39-23.25 126.22-21.19 127.04-19.13 127.04-16.35L127.04-16.35 127.04 0 121.69 0 121.24-3.55Q118.64 0.7 113.89 0.7ZM116.54-4.1L116.54-4.1Q117.67-4.1 118.96-5.01 120.24-5.93 120.99-7.35L120.99-7.35 120.99-10.9Q120.74-10.95 120.46-10.95 120.17-10.95 119.79-10.95L119.79-10.95Q118.42-10.95 116.91-10.64 115.39-10.33 114.34-9.55 113.29-8.78 113.29-7.4L113.29-7.4Q113.29-5.6 114.09-4.85 114.89-4.1 116.54-4.1ZM134.39 9L137.19 4.3Q138.09 4.85 139.38 5.3 140.66 5.75 142.39 5.75L142.39 5.75Q145.59 5.75 147.19 4.09 148.79 2.43 148.79-1.2L148.79-1.2 148.79-5.1Q148.44-3.83 147.69-2.58 146.94-1.33 145.63-0.51 144.32 0.3 142.29 0.3L142.29 0.3Q139.46 0.3 137.18-0.99 134.89-2.27 133.54-5.08 132.19-7.88 132.19-12.4L132.19-12.4Q132.19-17 133.53-19.89 134.87-22.78 137.13-24.14 139.39-25.5 142.14-25.5L142.14-25.5Q145.21-25.5 146.84-23.95 148.46-22.4 148.79-20.6L148.79-20.6 149.49-24.9 154.39-24.9 154.39-1.2Q154.39 4.53 151.5 7.86 148.62 11.2 142.99 11.2L142.99 11.2Q139.96 11.2 137.74 10.44 135.51 9.68 134.39 9L134.39 9ZM143.54-4.6L143.54-4.6Q145.71-4.6 146.95-6.66 148.19-8.72 148.19-12.5L148.19-12.5Q148.19-16.07 147.12-18.26 146.04-20.45 143.74-20.45L143.74-20.45Q142.46-20.45 141.3-19.69 140.14-18.93 139.39-17.18 138.64-15.43 138.64-12.45L138.64-12.45Q138.64-8.4 140.03-6.5 141.41-4.6 143.54-4.6ZM171.74 0.65L171.74 0.65Q167.54 0.65 164.96-1.11 162.39-2.88 161.21-5.79 160.04-8.7 160.04-12.15L160.04-12.15Q160.04-15.78 161.38-18.81 162.71-21.85 165.3-23.68 167.89-25.5 171.64-25.5L171.64-25.5Q177.24-25.5 179.46-22.26 181.69-19.03 181.69-13.1L181.69-13.1Q181.69-12.58 181.66-11.78 181.64-10.98 181.59-10.4L181.59-10.4 166.59-10.4Q166.74-7.45 168.25-5.78 169.76-4.1 172.79-4.1L172.79-4.1Q174.34-4.1 176.11-4.79 177.89-5.48 178.74-6.45L178.74-6.45 180.74-1.7Q179.74-1.03 177.58-0.19 175.41 0.65 171.74 0.65ZM166.54-14.3L166.54-14.3 175.34-14.3Q175.34-16.93 174.88-18.31 174.41-19.7 173.61-20.23 172.81-20.75 171.79-20.75L171.79-20.75Q169.24-20.75 167.96-18.86 166.69-16.98 166.54-14.3Z" fill="#375a82" data-fill-palette-color="secondary"></path></g></svg></g></svg></g></svg></g></svg></g><g><svg viewBox="0 0 182.00983713268255 157.01034360144985" height="157.01034360144985" width="182.00983713268255"><g><svg xmlns="http://www.w3.org/2000/svg" xmlns:xlink="http://www.w3.org/1999/xlink" version="1.1" x="0" y="0" viewBox="0.507 7.136 98.51299999999999 84.982" enable-background="new 0 0 100 100" xml:space="preserve" height="157.01034360144985" width="182.00983713268255" class="icon-icon-0" data-fill-palette-color="accent" id="icon-0"></svg></g></svg></g></svg></g><defs></defs><mask id="3d22ea2a-ad6f-4b6c-bd51-71630324e72e"><g id="SvgjsG1196"><svg viewBox="0 0 395.5199999999999 101.23465845478898" height="101.23465845478898" width="395.5199999999999"><g><svg viewBox="0 0 613.4335024104357 157.01034360144985" height="101.23465845478898" width="395.5199999999999"><g><rect width="5.7578506028974585" height="114.17901253216866" x="197.08274447011044" y="21.415665534640596" fill="white" opacity="1" stroke-width="0" stroke="transparent" fill-opacity="1" class="rect-yte-0" rx="1%" id="SvgjsRect1195" data-palette-color="url(#c702d91e-f590-4653-8d77-33b599a3d1d8)"></rect></g><g transform="matrix(1,0,0,1,217.9135024104358,21.69969292899922)"><svg viewBox="0 0 395.52 113.61095774345141" height="113.61095774345141" width="395.52"><g id="SvgjsG1194"><svg viewBox="0 0 395.52 113.61095774345141" height="113.61095774345141" width="395.52" id="SvgjsSvg1193"><g><svg viewBox="0 0 395.52 63.847690309171206" height="63.847690309171206" width="395.52"><g transform="matrix(1,0,0,1,0,0)"><svg width="395.52" viewBox="3.98 -39.5 283.25 45.51" height="63.847690309171206" data-palette-color="url(#c702d91e-f590-4653-8d77-33b599a3d1d8)"><g class="wordmark-text-0" data-fill-palette-color="primary" id="SvgjsG1192"><path d="M29.22-4.49L29.22 0 3.98 0 3.98-35.16 29.22-35.16 29.22-30.66 13.67-30.66 13.67-19.8 25.68-19.8 25.68-15.33 13.67-15.33 13.67-4.49 29.22-4.49ZM63.11-38.57L63.11 0 59.93 0 56.27-6.13Q55.73-4.59 54.79-3.34 53.85-2.1 52.62-1.21 51.39-0.32 49.91 0.17 48.44 0.66 46.8 0.66L46.8 0.66Q43.58 0.66 41.04-0.49 38.5-1.64 36.74-3.63 34.98-5.62 34.06-8.3 33.13-10.99 33.13-14.06L33.13-14.06Q33.13-17.14 34.06-19.82 34.98-22.51 36.74-24.49 38.5-26.46 41.04-27.61 43.58-28.76 46.8-28.76L46.8-28.76Q49.27-28.76 51.33-27.81 53.39-26.86 54.86-24.83L54.86-24.83 54.86-38.57 63.11-38.57ZM54.81-14.06L54.81-14.06Q54.81-15.04 54.66-16.21 54.51-17.38 54.2-18.58 53.88-19.78 53.37-20.9 52.85-22.02 52.11-22.9 51.36-23.78 50.38-24.3 49.39-24.83 48.12-24.83L48.12-24.83Q46.73-24.83 45.7-24.33 44.68-23.83 43.94-22.99 43.21-22.14 42.73-21.04 42.26-19.95 41.99-18.75 41.72-17.55 41.61-16.35 41.5-15.14 41.5-14.06L41.5-14.06Q41.5-12.99 41.61-11.78 41.72-10.57 41.99-9.38 42.26-8.18 42.73-7.07 43.21-5.96 43.94-5.11 44.68-4.27 45.7-3.77 46.73-3.27 48.12-3.27L48.12-3.27Q49.51-3.27 50.56-3.76 51.61-4.25 52.35-5.09 53.1-5.93 53.57-7.02 54.05-8.11 54.32-9.31 54.59-10.52 54.7-11.74 54.81-12.96 54.81-14.06ZM78.66-35.01L78.66-35.01Q78.66-34.08 78.3-33.25 77.95-32.42 77.34-31.81 76.73-31.2 75.9-30.85 75.07-30.49 74.14-30.49L74.14-30.49Q73.21-30.49 72.39-30.85 71.58-31.2 70.97-31.81 70.36-32.42 70-33.25 69.65-34.08 69.65-35.01L69.65-35.01Q69.65-35.94 70-36.76 70.36-37.57 70.97-38.18 71.58-38.79 72.39-39.15 73.21-39.5 74.14-39.5L74.14-39.5Q75.07-39.5 75.9-39.15 76.73-38.79 77.34-38.18 77.95-37.57 78.3-36.76 78.66-35.94 78.66-35.01ZM78.29-28.17L78.29 0 70.01 0 70.01-28.17 78.29-28.17ZM95.82-24.93L95.82 0 87.54 0 87.54-24.93 82.41-24.93 82.41-28.2 87.54-28.2 87.54-38.57 95.82-38.57 95.82-28.2 104.36-28.2 104.36-24.93 95.82-24.93ZM140.66-26.44L140.66-26.44 136.49-24.68Q136-26.27 135.18-27.59 134.37-28.91 133.23-29.85 132.09-30.79 130.65-31.31 129.21-31.84 127.5-31.84L127.5-31.84Q125.67-31.84 124.15-31.23 122.62-30.62 121.41-29.58 120.2-28.54 119.3-27.15 118.4-25.76 117.8-24.18 117.2-22.61 116.9-20.92 116.59-19.24 116.59-17.63L116.59-17.63Q116.59-15.06 117.19-12.52 117.79-9.99 119.09-7.96 120.4-5.93 122.48-4.68 124.55-3.42 127.5-3.42L127.5-3.42Q129.12-3.42 130.02-4.14 130.92-4.86 130.92-6.67L130.92-6.67 130.92-17.46 140.62-17.46 140.62 0 137.81 0 136.1-2.76Q133.75-0.98 130.93-0.13 128.12 0.71 125.19 0.71L125.19 0.71Q122.6 0.71 120.22 0.07 117.84-0.56 115.79-1.73 113.74-2.91 112.06-4.57 110.39-6.23 109.21-8.25 108.02-10.28 107.38-12.66 106.73-15.04 106.73-17.63L106.73-17.63Q106.73-20.21 107.38-22.6 108.02-24.98 109.21-27.01 110.39-29.05 112.06-30.71 113.74-32.37 115.79-33.54 117.84-34.72 120.22-35.35 122.6-35.99 125.19-35.99L125.19-35.99Q127.68-35.99 130.06-35.4 132.44-34.81 134.49-33.63 136.54-32.45 138.14-30.65 139.74-28.86 140.66-26.44ZM153.72-13.38L153.72-13.38Q155.24-13.04 156.75-12.84 158.26-12.65 159.8-12.65L159.8-12.65Q161.41-12.65 162.79-12.95 164.17-13.26 165.19-13.98 166.2-14.7 166.78-15.89 167.37-17.09 167.37-18.87L167.37-18.87Q167.37-20.31 166.98-21.51 166.59-22.71 165.82-23.56 165.05-24.41 163.93-24.89 162.8-25.37 161.32-25.37L161.32-25.37Q159.92-25.37 158.81-24.85 157.7-24.34 156.86-23.47 156.02-22.61 155.42-21.46 154.82-20.31 154.43-19.07 154.04-17.82 153.87-16.55 153.7-15.28 153.7-14.16L153.7-14.16Q153.7-13.96 153.7-13.77 153.7-13.57 153.72-13.38ZM174.06-18.95L174.06-18.95Q174.06-17.21 173.5-15.86 172.94-14.5 171.97-13.48 171.01-12.45 169.74-11.74 168.47-11.04 167.03-10.58 165.59-10.13 164.06-9.94 162.54-9.74 161.1-9.74L161.1-9.74Q159.26-9.74 157.48-10 155.7-10.25 153.97-10.82L153.97-10.82Q154.24-9.2 154.82-7.75 155.41-6.3 156.38-5.21 157.36-4.13 158.79-3.49 160.22-2.86 162.17-2.86L162.17-2.86Q163.46-2.86 164.64-3.25 165.81-3.64 166.78-4.35 167.76-5.05 168.51-6.03 169.25-7.01 169.71-8.2L169.71-8.2 173.28-6.88Q172.47-4.96 171.07-3.55 169.67-2.15 167.9-1.23 166.13-0.32 164.14 0.12 162.15 0.56 160.19 0.56L160.19 0.56Q156.97 0.56 154.24-0.52 151.5-1.61 149.52-3.56 147.55-5.52 146.42-8.23 145.3-10.94 145.3-14.16L145.3-14.16Q145.3-17.38 146.42-20.09 147.55-22.8 149.52-24.76 151.5-26.71 154.24-27.8 156.97-28.88 160.19-28.88L160.19-28.88Q161.76-28.88 163.39-28.66 165.03-28.44 166.56-27.97 168.1-27.49 169.47-26.73 170.84-25.98 171.85-24.87 172.86-23.75 173.46-22.29 174.06-20.83 174.06-18.95ZM208.04-16.16L208.04-16.16Q208.04-13.31 207.35-10.21 206.65-7.1 205.4-4.13 204.16-1.15 202.43 1.48 200.69 4.1 198.62 6.01L198.62 6.01 195.52 4.32Q196.18 3.1 196.76 1.59 197.35 0.07 197.82-1.62 198.3-3.32 198.68-5.13 199.06-6.93 199.31-8.7 199.57-10.47 199.7-12.15 199.84-13.82 199.84-15.26L199.84-15.26Q199.84-16.21 199.77-17.3 199.69-18.38 199.46-19.47 199.23-20.56 198.84-21.56 198.45-22.56 197.8-23.32 197.15-24.07 196.24-24.54 195.32-25 194.08-25L194.08-25Q192.86-25 191.9-24.45 190.95-23.9 190.22-23.01 189.49-22.12 188.96-20.97 188.44-19.82 188.11-18.62 187.78-17.41 187.63-16.24 187.49-15.06 187.49-14.14L187.49-14.14 187.49 0 179.21 0 179.21-28.2 182.38-28.2 186.17-21.63Q186.85-23.27 187.88-24.61 188.9-25.95 190.19-26.9 191.49-27.86 193.06-28.37 194.64-28.88 196.47-28.88L196.47-28.88Q199.4-28.88 201.57-27.93 203.74-26.98 205.19-25.28 206.63-23.58 207.33-21.25 208.04-18.92 208.04-16.16ZM222.15-35.01L222.15-35.01Q222.15-34.08 221.8-33.25 221.44-32.42 220.83-31.81 220.22-31.2 219.39-30.85 218.56-30.49 217.63-30.49L217.63-30.49Q216.71-30.49 215.89-30.85 215.07-31.2 214.46-31.81 213.85-32.42 213.5-33.25 213.14-34.08 213.14-35.01L213.14-35.01Q213.14-35.94 213.5-36.76 213.85-37.57 214.46-38.18 215.07-38.79 215.89-39.15 216.71-39.5 217.63-39.5L217.63-39.5Q218.56-39.5 219.39-39.15 220.22-38.79 220.83-38.18 221.44-37.57 221.8-36.76 222.15-35.94 222.15-35.01ZM221.78-28.17L221.78 0 213.51 0 213.51-28.17 221.78-28.17ZM227.25-12.06L227.25-12.06Q227.25-13.99 227.58-16.06 227.91-18.14 228.53-20.21 229.15-22.29 230.03-24.32 230.91-26.34 232.01-28.2L232.01-28.2 238.04-28.2Q237.43-26.37 236.96-24.38 236.48-22.39 236.15-20.4 235.82-18.41 235.64-16.5 235.45-14.6 235.45-12.96L235.45-12.96Q235.45-12.01 235.54-10.93 235.62-9.84 235.84-8.75 236.06-7.67 236.47-6.67 236.87-5.66 237.5-4.9 238.14-4.13 239.05-3.67 239.97-3.22 241.22-3.22L241.22-3.22Q242.44-3.22 243.4-3.77 244.36-4.32 245.1-5.21 245.83-6.1 246.34-7.25 246.86-8.4 247.18-9.61 247.51-10.82 247.67-11.98 247.83-13.13 247.83-14.06L247.83-14.06 247.83-28.2 256.08-28.2 256.08 0 252.91 0 249.13-6.57Q248.42-4.93 247.4-3.6 246.39-2.27 245.1-1.32 243.8-0.37 242.23 0.15 240.65 0.66 238.82 0.66L238.82 0.66Q235.89 0.66 233.72-0.29 231.55-1.25 230.11-2.93 228.67-4.61 227.96-6.95 227.25-9.28 227.25-12.06ZM287.23-9.01L287.23-9.01Q287.23-7.15 286.7-5.71 286.16-4.27 285.23-3.21 284.3-2.15 283.03-1.43 281.76-0.71 280.31-0.27 278.86 0.17 277.27 0.37 275.69 0.56 274.12 0.56L274.12 0.56Q272.02 0.56 270.41 0.29 268.8 0.02 267.34-0.57 265.87-1.17 264.42-2.12 262.97-3.08 261.18-4.44L261.18-4.44 265.99-8.37Q266.65-7.13 267.74-6.12 268.83-5.1 270-4.37 271.17-3.64 272.27-3.25 273.37-2.86 274.05-2.86L274.05-2.86Q274.61-2.86 275.32-2.89 276.03-2.93 276.76-3.04 277.49-3.15 278.2-3.37 278.91-3.59 279.46-3.97 280.01-4.35 280.34-4.92 280.67-5.49 280.67-6.3L280.67-6.3Q280.67-7.13 280.24-7.75 279.81-8.37 279.13-8.84 278.44-9.3 277.57-9.62 276.69-9.94 275.8-10.18 274.9-10.42 274.07-10.61 273.24-10.79 272.63-10.96L272.63-10.96Q271.51-11.28 270.27-11.61 269.02-11.94 267.8-12.37 266.58-12.79 265.47-13.38 264.36-13.96 263.52-14.78 262.67-15.6 262.17-16.71 261.67-17.82 261.67-19.31L261.67-19.31Q261.67-22.05 262.76-23.89 263.84-25.73 265.63-26.84 267.41-27.95 269.68-28.42 271.95-28.88 274.29-28.88L274.29-28.88Q275.91-28.88 277.69-28.55 279.47-28.22 281.15-27.58 282.84-26.93 284.3-26 285.77-25.07 286.75-23.88L286.75-23.88 281.94-19.92Q281.4-21.39 280.53-22.44 279.67-23.49 278.65-24.16 277.64-24.83 276.58-25.15 275.51-25.46 274.61-25.46L274.61-25.46Q273.73-25.46 272.63-25.39 271.54-25.32 270.57-24.98 269.61-24.63 268.94-23.94 268.26-23.24 268.26-22.02L268.26-22.02Q268.26-21.14 268.67-20.52 269.07-19.9 269.73-19.45 270.39-18.99 271.23-18.69 272.07-18.38 272.95-18.15 273.83-17.92 274.66-17.75 275.49-17.58 276.15-17.38L276.15-17.38Q277.27-17.07 278.53-16.74 279.79-16.41 281.01-15.98 282.23-15.55 283.36-14.98 284.5-14.4 285.35-13.57 286.21-12.74 286.72-11.63 287.23-10.52 287.23-9.01Z" fill="white"></path></g></svg></g></svg></g><g transform="matrix(1,0,0,1,0,78.9205976465991)"><svg viewBox="0 0 232.96128000000002 34.6903600968523" height="34.6903600968523" width="232.96128000000002"><g transform="matrix(1,0,0,1,0,0)"><svg width="232.96128000000002" viewBox="-0.85 -38 325.18 49.199999999999996" height="34.6903600968523" data-palette-color="#375a82"><g class="slogan-text-1" data-fill-palette-color="secondary" id="SvgjsG1191"><path d="M6.15 0L-0.85 0 13.9-35.45 14.4-35.45 29.2 0 22.4 0 20.45-5.05 8-5.05 6.15 0ZM14.1-22.2L13.3-19.4 9.8-9.9 18.6-9.9 14.95-19.4 14.1-22.2ZM38.85-28.95L31.85-28.95 31.85-35.6 38.85-35.6 38.85-28.95ZM38.6 0L32.1 0 32.1-24.9 38.6-24.9 38.6 0Z" fill="white"></path><path d="M58.8 0L52.4 0 52.4-34.85 58.8-34.85 58.8 0ZM72.94 0L66.55 0 66.55-24.9 72.3-24.9 72.44-21.6Q73.42-23.1 75.16-24.3 76.9-25.5 79.8-25.5L79.8-25.5Q82.32-25.5 84-24.38 85.67-23.25 86.52-21.2L86.52-21.2Q87.47-22.78 89.26-24.14 91.05-25.5 94.25-25.5L94.25-25.5Q97.99-25.5 99.85-23.1 101.69-20.7 101.69-16.45L101.69-16.45 101.69 0 95.35 0 95.35-15.8Q95.35-17.88 94.55-19.16 93.75-20.45 91.94-20.45L91.94-20.45Q90.19-20.45 88.77-19.16 87.35-17.88 87.35-15.8L87.35-15.8 87.35 0 80.94 0 80.94-15.8Q80.94-17.88 80.03-19.21 79.12-20.55 77.35-20.55L77.35-20.55Q75.55-20.55 74.25-19.21 72.94-17.88 72.94-15.8L72.94-15.8 72.94 0ZM113.89 0.7L113.89 0.7Q111.59 0.7 110.08-0.33 108.57-1.35 107.83-3.05 107.09-4.75 107.09-6.8L107.09-6.8Q107.09-7.95 107.68-9.33 108.27-10.7 109.77-11.95 111.27-13.2 113.99-14 116.72-14.8 120.99-14.8L120.99-14.8 120.99-15.95Q120.99-17.8 120.1-19.03 119.22-20.25 116.54-20.25L116.54-20.25Q114.59-20.25 112.73-19.59 110.87-18.93 109.99-17.95L109.99-17.95 107.99-22.75Q109.49-23.78 112.01-24.64 114.52-25.5 117.59-25.5L117.59-25.5Q121.29-25.5 123.34-24.38 125.39-23.25 126.22-21.19 127.04-19.13 127.04-16.35L127.04-16.35 127.04 0 121.69 0 121.24-3.55Q118.64 0.7 113.89 0.7ZM116.54-4.1L116.54-4.1Q117.67-4.1 118.96-5.01 120.24-5.93 120.99-7.35L120.99-7.35 120.99-10.9Q120.74-10.95 120.46-10.95 120.17-10.95 119.79-10.95L119.79-10.95Q118.42-10.95 116.91-10.64 115.39-10.33 114.34-9.55 113.29-8.78 113.29-7.4L113.29-7.4Q113.29-5.6 114.09-4.85 114.89-4.1 116.54-4.1ZM134.39 9L137.19 4.3Q138.09 4.85 139.38 5.3 140.66 5.75 142.39 5.75L142.39 5.75Q145.59 5.75 147.19 4.09 148.79 2.43 148.79-1.2L148.79-1.2 148.79-5.1Q148.44-3.83 147.69-2.58 146.94-1.33 145.63-0.51 144.32 0.3 142.29 0.3L142.29 0.3Q139.46 0.3 137.18-0.99 134.89-2.27 133.54-5.08 132.19-7.88 132.19-12.4L132.19-12.4Q132.19-17 133.53-19.89 134.87-22.78 137.13-24.14 139.39-25.5 142.14-25.5L142.14-25.5Q145.21-25.5 146.84-23.95 148.46-22.4 148.79-20.6L148.79-20.6 149.49-24.9 154.39-24.9 154.39-1.2Q154.39 4.53 151.5 7.86 148.62 11.2 142.99 11.2L142.99 11.2Q139.96 11.2 137.74 10.44 135.51 9.68 134.39 9L134.39 9ZM143.54-4.6L143.54-4.6Q145.71-4.6 146.95-6.66 148.19-8.72 148.19-12.5L148.19-12.5Q148.19-16.07 147.12-18.26 146.04-20.45 143.74-20.45L143.74-20.45Q142.46-20.45 141.3-19.69 140.14-18.93 139.39-17.18 138.64-15.43 138.64-12.45L138.64-12.45Q138.64-8.4 140.03-6.5 141.41-4.6 143.54-4.6ZM171.74 0.65L171.74 0.65Q167.54 0.65 164.96-1.11 162.39-2.88 161.21-5.79 160.04-8.7 160.04-12.15L160.04-12.15Q160.04-15.78 161.38-18.81 162.71-21.85 165.3-23.68 167.89-25.5 171.64-25.5L171.64-25.5Q177.24-25.5 179.46-22.26 181.69-19.03 181.69-13.1L181.69-13.1Q181.69-12.58 181.66-11.78 181.64-10.98 181.59-10.4L181.59-10.4 166.59-10.4Q166.74-7.45 168.25-5.78 169.76-4.1 172.79-4.1L172.79-4.1Q174.34-4.1 176.11-4.79 177.89-5.48 178.74-6.45L178.74-6.45 180.74-1.7Q179.74-1.03 177.58-0.19 175.41 0.65 171.74 0.65ZM166.54-14.3L166.54-14.3 175.34-14.3Q175.34-16.93 174.88-18.31 174.41-19.7 173.61-20.23 172.81-20.75 171.79-20.75L171.79-20.75Q169.24-20.75 167.96-18.86 166.69-16.98 166.54-14.3Z" fill="black"></path><path d="M214.44 0L195.24 0 195.24-34.85 213.44-34.85 213.44-29.4 201.49-29.4 201.49-21.25 210.99-21.25 210.99-15.95 201.49-15.95 201.49-5.65 214.44-5.65 214.44 0ZM228.53 0.7L228.53 0.7Q225.51 0.7 223.28-0.93 221.06-2.55 219.85-5.5 218.64-8.45 218.64-12.4L218.64-12.4Q218.64-18.55 221.15-22.03 223.66-25.5 228.64-25.5L228.64-25.5Q231.19-25.5 232.95-24.24 234.71-22.98 235.24-20.6L235.24-20.6 234.78-24.25 234.78-38 240.69-38 240.69 0 235.24 0 235.24-5.1Q234.56-2.53 232.86-0.91 231.16 0.7 228.53 0.7ZM229.99-4.25L229.99-4.25Q231.78-4.25 233.21-6.14 234.64-8.03 234.64-12.3L234.64-12.3Q234.64-16.2 233.53-18.32 232.44-20.45 230.14-20.45L230.14-20.45Q228.96-20.45 227.8-19.73 226.64-19 225.86-17.24 225.09-15.48 225.09-12.4L225.09-12.4Q225.09-8.28 226.51-6.26 227.94-4.25 229.99-4.25ZM255.08-28.95L248.08-28.95 248.08-35.6 255.08-35.6 255.08-28.95ZM254.83 0L248.33 0 248.33-24.9 254.83-24.9 254.83 0ZM270.48 0.75L270.48 0.75Q266.26 0.75 264.77-1.45 263.28-3.65 263.28-8.1L263.28-8.1 263.28-19.65 260.03-19.65 260.03-24.9 263.53-24.9 263.88-30.15 269.33-32.5 269.33-24.9 275.48-24.9 275.48-19.65 269.33-19.65 269.33-8.25Q269.33-6.08 269.94-5.24 270.56-4.4 271.63-4.4L271.63-4.4Q272.73-4.4 273.96-4.98 275.18-5.55 275.88-6.15L275.88-6.15 277.08-1.1Q276.31-0.55 275.07-0.14 273.83 0.28 272.57 0.51 271.31 0.75 270.48 0.75ZM291.63 0.5L291.63 0.5Q286.13 0.5 283.13-2.95 280.13-6.4 280.13-12.5L280.13-12.5Q280.13-18.65 283.23-22.08 286.33-25.5 291.83-25.5L291.83-25.5Q297.35-25.5 300.24-21.96 303.13-18.43 303.13-12.5L303.13-12.5Q303.13-6.58 300.14-3.04 297.15 0.5 291.63 0.5ZM291.73-4.5L291.73-4.5Q296.48-4.5 296.48-12.5L296.48-12.5Q296.48-20.55 291.73-20.55L291.73-20.55Q289.38-20.55 288.08-18.69 286.78-16.82 286.78-12.5L286.78-12.5Q286.78-8.2 288.08-6.35 289.38-4.5 291.73-4.5ZM314.93 0L308.68 0 308.68-24.9 314.33-24.9 314.63-20.5Q315.03-21.48 315.86-22.58 316.7-23.68 318.19-24.44 319.68-25.2 322.03-25.2L322.03-25.2Q322.75-25.2 323.3-25.1 323.85-25 324.33-24.8L324.33-24.8 322.93-18.25Q322.13-19.05 320.48-19.05L320.48-19.05Q318.55-19.05 317.33-18.26 316.1-17.48 315.51-16.5 314.93-15.53 314.93-15L314.93-15 314.93 0Z" fill="black"></path></g></svg></g></svg></g></svg></g></svg></g><g><svg viewBox="0 0 182.00983713268255 157.01034360144985" height="157.01034360144985" width="182.00983713268255"><g><svg xmlns="http://www.w3.org/2000/svg" xmlns:xlink="http://www.w3.org/1999/xlink" version="1.1" x="0" y="0" viewBox="0.507 7.136 98.51299999999999 84.982" enable-background="new 0 0 100 100" xml:space="preserve" height="157.01034360144985" width="182.00983713268255" class="icon-icon-0" data-fill-palette-color="accent" id="SvgjsSvg1190"><g fill="black"><path d="M22.048 42.728L25.829 47.455 38.642 65.239A0.42 0.42 0 0 0 38.849 65.402L23.004 90.852 15.187 44.39zM0.507 55.422A0.9 0.9 0 0 1 0.708 54.928L12.118 40.129A0.635 0.635 0 0 1 12.785 39.889L21.121 41.797C21.362 41.887 21.356 41.907 21.425 41.978L14.778 43.589C14.538 43.65 14.484 43.67 14.343 43.778zM19.537 87.812L15.759 82.927A0.4 0.4 0 0 1 15.694 82.816L18.169 81.769zM21.713 88.462C21.429 88.598 21.039 88.784 20.647 88.749L18.907 81.064C18.842 80.779 18.578 80.646 18.309 80.757L15.982 81.742C16.602 80.805 17.908 79.713 18.311 79.263L13.357 50.91 1.485 55.936A1.1 1.1 0 0 1 1.16 56.018L14.382 44.89zM37.129 61.631L46.048 53.846 39.311 64.665zM39.486 86.967L23.765 92.118C30.733 86.326 39.638 78.907 47.736 72.148zM98.23 86.475L40.604 86.768 49.525 70.742zM99.02 85.784L50.25 70.055A46403 46403 0 0 0 69.246 54.201zM49.038 69.889A0.4 0.4 0 0 0 48.934 70.001 13656 13656 0 0 1 24.16 90.65L46.208 55.246zM60.498 60.363L49.812 69.277 47.014 54.795zM55.514 57.355L47.55 54.066 56.358 55.515zM79.921 8.222C79.813 9.295 74.361 58.34 74.361 58.34L69.605 53.3A0.464 0.464 0 0 0 69.001 53.262L61.246 59.737C61.207 59.702 56.319 57.694 56.319 57.694L63.139 42.826C63.143 42.824 79.249 9.773 79.921 8.222M32.224 7.136C32.33 7.194 32.434 7.285 32.531 7.413L60.976 45.447 56.734 54.694 45.979 52.923A0.9 0.9 0 0 0 45.62 53.027L43.274 55.084zM26.009 46.159L31.351 7.717C31.364 7.633 31.381 7.557 31.407 7.489L42.525 55.736 36.616 60.917z" fill="black"></path></g></svg></g></svg></g></svg></g><defs><mask></mask></defs></svg><rect width="395.5199999999999" height="101.23465845478898" fill="black" stroke="none" visibility="hidden"></rect></g></mask><linearGradient x1="0.054" x2="0.941" y1="0.5" y2="0.5" id="c702d91e-f590-4653-8d77-33b599a3d1d8"><stop stop-color="#0f3054" offset="0"></stop><stop stop-color="#3b8dcb" offset="0.498"></stop><stop stop-color="#0f3054" offset="1"></stop></linearGradient><rect width="395.5199999999999" height="101.23465845478898" fill="url(#c702d91e-f590-4653-8d77-33b599a3d1d8)" mask="url(#3d22ea2a-ad6f-4b6c-bd51-71630324e72e)" data-fill-palette-color="primary"></rect><mask id="2e97ac8b-b003-4308-93a3-352d3e4ab67d"><g id="SvgjsG1209"><svg viewBox="0 0 395.5199999999999 101.23465845478898" height="101.23465845478898" width="395.5199999999999"><g><svg viewBox="0 0 613.4335024104357 157.01034360144985" height="101.23465845478898" width="395.5199999999999"><g></g><g transform="matrix(1,0,0,1,217.9135024104358,21.69969292899922)"><svg viewBox="0 0 395.52 113.61095774345141" height="113.61095774345141" width="395.52"><g id="SvgjsG1208"><svg viewBox="0 0 395.52 113.61095774345141" height="113.61095774345141" width="395.52" id="SvgjsSvg1207"><g><svg viewBox="0 0 395.52 63.847690309171206" height="63.847690309171206" width="395.52"><g transform="matrix(1,0,0,1,0,0)"><svg width="395.52" viewBox="3.98 -39.5 283.25 45.51" height="63.847690309171206" data-palette-color="url(#c702d91e-f590-4653-8d77-33b599a3d1d8)"><g class="wordmark-text-0" data-fill-palette-color="primary" id="SvgjsG1206"></g></svg></g></svg></g><g transform="matrix(1,0,0,1,0,78.9205976465991)"><svg viewBox="0 0 232.96128000000002 34.6903600968523" height="34.6903600968523" width="232.96128000000002"><g transform="matrix(1,0,0,1,0,0)"><svg width="232.96128000000002" viewBox="-0.85 -38 325.18 49.199999999999996" height="34.6903600968523" data-palette-color="#375a82"><g class="slogan-text-1" data-fill-palette-color="secondary" id="SvgjsG1205"><path d="M58.8 0L52.4 0 52.4-34.85 58.8-34.85 58.8 0ZM72.94 0L66.55 0 66.55-24.9 72.3-24.9 72.44-21.6Q73.42-23.1 75.16-24.3 76.9-25.5 79.8-25.5L79.8-25.5Q82.32-25.5 84-24.38 85.67-23.25 86.52-21.2L86.52-21.2Q87.47-22.78 89.26-24.14 91.05-25.5 94.25-25.5L94.25-25.5Q97.99-25.5 99.85-23.1 101.69-20.7 101.69-16.45L101.69-16.45 101.69 0 95.35 0 95.35-15.8Q95.35-17.88 94.55-19.16 93.75-20.45 91.94-20.45L91.94-20.45Q90.19-20.45 88.77-19.16 87.35-17.88 87.35-15.8L87.35-15.8 87.35 0 80.94 0 80.94-15.8Q80.94-17.88 80.03-19.21 79.12-20.55 77.35-20.55L77.35-20.55Q75.55-20.55 74.25-19.21 72.94-17.88 72.94-15.8L72.94-15.8 72.94 0ZM113.89 0.7L113.89 0.7Q111.59 0.7 110.08-0.33 108.57-1.35 107.83-3.05 107.09-4.75 107.09-6.8L107.09-6.8Q107.09-7.95 107.68-9.33 108.27-10.7 109.77-11.95 111.27-13.2 113.99-14 116.72-14.8 120.99-14.8L120.99-14.8 120.99-15.95Q120.99-17.8 120.1-19.03 119.22-20.25 116.54-20.25L116.54-20.25Q114.59-20.25 112.73-19.59 110.87-18.93 109.99-17.95L109.99-17.95 107.99-22.75Q109.49-23.78 112.01-24.64 114.52-25.5 117.59-25.5L117.59-25.5Q121.29-25.5 123.34-24.38 125.39-23.25 126.22-21.19 127.04-19.13 127.04-16.35L127.04-16.35 127.04 0 121.69 0 121.24-3.55Q118.64 0.7 113.89 0.7ZM116.54-4.1L116.54-4.1Q117.67-4.1 118.96-5.01 120.24-5.93 120.99-7.35L120.99-7.35 120.99-10.9Q120.74-10.95 120.46-10.95 120.17-10.95 119.79-10.95L119.79-10.95Q118.42-10.95 116.91-10.64 115.39-10.33 114.34-9.55 113.29-8.78 113.29-7.4L113.29-7.4Q113.29-5.6 114.09-4.85 114.89-4.1 116.54-4.1ZM134.39 9L137.19 4.3Q138.09 4.85 139.38 5.3 140.66 5.75 142.39 5.75L142.39 5.75Q145.59 5.75 147.19 4.09 148.79 2.43 148.79-1.2L148.79-1.2 148.79-5.1Q148.44-3.83 147.69-2.58 146.94-1.33 145.63-0.51 144.32 0.3 142.29 0.3L142.29 0.3Q139.46 0.3 137.18-0.99 134.89-2.27 133.54-5.08 132.19-7.88 132.19-12.4L132.19-12.4Q132.19-17 133.53-19.89 134.87-22.78 137.13-24.14 139.39-25.5 142.14-25.5L142.14-25.5Q145.21-25.5 146.84-23.95 148.46-22.4 148.79-20.6L148.79-20.6 149.49-24.9 154.39-24.9 154.39-1.2Q154.39 4.53 151.5 7.86 148.62 11.2 142.99 11.2L142.99 11.2Q139.96 11.2 137.74 10.44 135.51 9.68 134.39 9L134.39 9ZM143.54-4.6L143.54-4.6Q145.71-4.6 146.95-6.66 148.19-8.72 148.19-12.5L148.19-12.5Q148.19-16.07 147.12-18.26 146.04-20.45 143.74-20.45L143.74-20.45Q142.46-20.45 141.3-19.69 140.14-18.93 139.39-17.18 138.64-15.43 138.64-12.45L138.64-12.45Q138.64-8.4 140.03-6.5 141.41-4.6 143.54-4.6ZM171.74 0.65L171.74 0.65Q167.54 0.65 164.96-1.11 162.39-2.88 161.21-5.79 160.04-8.7 160.04-12.15L160.04-12.15Q160.04-15.78 161.38-18.81 162.71-21.85 165.3-23.68 167.89-25.5 171.64-25.5L171.64-25.5Q177.24-25.5 179.46-22.26 181.69-19.03 181.69-13.1L181.69-13.1Q181.69-12.58 181.66-11.78 181.64-10.98 181.59-10.4L181.59-10.4 166.59-10.4Q166.74-7.45 168.25-5.78 169.76-4.1 172.79-4.1L172.79-4.1Q174.34-4.1 176.11-4.79 177.89-5.48 178.74-6.45L178.74-6.45 180.74-1.7Q179.74-1.03 177.58-0.19 175.41 0.65 171.74 0.65ZM166.54-14.3L166.54-14.3 175.34-14.3Q175.34-16.93 174.88-18.31 174.41-19.7 173.61-20.23 172.81-20.75 171.79-20.75L171.79-20.75Q169.24-20.75 167.96-18.86 166.69-16.98 166.54-14.3Z" fill="black"></path><path d="M214.44 0L195.24 0 195.24-34.85 213.44-34.85 213.44-29.4 201.49-29.4 201.49-21.25 210.99-21.25 210.99-15.95 201.49-15.95 201.49-5.65 214.44-5.65 214.44 0ZM228.53 0.7L228.53 0.7Q225.51 0.7 223.28-0.93 221.06-2.55 219.85-5.5 218.64-8.45 218.64-12.4L218.64-12.4Q218.64-18.55 221.15-22.03 223.66-25.5 228.64-25.5L228.64-25.5Q231.19-25.5 232.95-24.24 234.71-22.98 235.24-20.6L235.24-20.6 234.78-24.25 234.78-38 240.69-38 240.69 0 235.24 0 235.24-5.1Q234.56-2.53 232.86-0.91 231.16 0.7 228.53 0.7ZM229.99-4.25L229.99-4.25Q231.78-4.25 233.21-6.14 234.64-8.03 234.64-12.3L234.64-12.3Q234.64-16.2 233.53-18.32 232.44-20.45 230.14-20.45L230.14-20.45Q228.96-20.45 227.8-19.73 226.64-19 225.86-17.24 225.09-15.48 225.09-12.4L225.09-12.4Q225.09-8.28 226.51-6.26 227.94-4.25 229.99-4.25ZM255.08-28.95L248.08-28.95 248.08-35.6 255.08-35.6 255.08-28.95ZM254.83 0L248.33 0 248.33-24.9 254.83-24.9 254.83 0ZM270.48 0.75L270.48 0.75Q266.26 0.75 264.77-1.45 263.28-3.65 263.28-8.1L263.28-8.1 263.28-19.65 260.03-19.65 260.03-24.9 263.53-24.9 263.88-30.15 269.33-32.5 269.33-24.9 275.48-24.9 275.48-19.65 269.33-19.65 269.33-8.25Q269.33-6.08 269.94-5.24 270.56-4.4 271.63-4.4L271.63-4.4Q272.73-4.4 273.96-4.98 275.18-5.55 275.88-6.15L275.88-6.15 277.08-1.1Q276.31-0.55 275.07-0.14 273.83 0.28 272.57 0.51 271.31 0.75 270.48 0.75ZM291.63 0.5L291.63 0.5Q286.13 0.5 283.13-2.95 280.13-6.4 280.13-12.5L280.13-12.5Q280.13-18.65 283.23-22.08 286.33-25.5 291.83-25.5L291.83-25.5Q297.35-25.5 300.24-21.96 303.13-18.43 303.13-12.5L303.13-12.5Q303.13-6.58 300.14-3.04 297.15 0.5 291.63 0.5ZM291.73-4.5L291.73-4.5Q296.48-4.5 296.48-12.5L296.48-12.5Q296.48-20.55 291.73-20.55L291.73-20.55Q289.38-20.55 288.08-18.69 286.78-16.82 286.78-12.5L286.78-12.5Q286.78-8.2 288.08-6.35 289.38-4.5 291.73-4.5ZM314.93 0L308.68 0 308.68-24.9 314.33-24.9 314.63-20.5Q315.03-21.48 315.86-22.58 316.7-23.68 318.19-24.44 319.68-25.2 322.03-25.2L322.03-25.2Q322.75-25.2 323.3-25.1 323.85-25 324.33-24.8L324.33-24.8 322.93-18.25Q322.13-19.05 320.48-19.05L320.48-19.05Q318.55-19.05 317.33-18.26 316.1-17.48 315.51-16.5 314.93-15.53 314.93-15L314.93-15 314.93 0Z" fill="white"></path></g></svg></g></svg></g></svg></g></svg></g><g><svg viewBox="0 0 182.00983713268255 157.01034360144985" height="157.01034360144985" width="182.00983713268255"><g><svg xmlns="http://www.w3.org/2000/svg" xmlns:xlink="http://www.w3.org/1999/xlink" version="1.1" x="0" y="0" viewBox="0.507 7.136 98.51299999999999 84.982" enable-background="new 0 0 100 100" xml:space="preserve" height="157.01034360144985" width="182.00983713268255" class="icon-icon-0" data-fill-palette-color="accent" id="SvgjsSvg1204"><g fill="white"><path d="M22.048 42.728L25.829 47.455 38.642 65.239A0.42 0.42 0 0 0 38.849 65.402L23.004 90.852 15.187 44.39zM0.507 55.422A0.9 0.9 0 0 1 0.708 54.928L12.118 40.129A0.635 0.635 0 0 1 12.785 39.889L21.121 41.797C21.362 41.887 21.356 41.907 21.425 41.978L14.778 43.589C14.538 43.65 14.484 43.67 14.343 43.778zM19.537 87.812L15.759 82.927A0.4 0.4 0 0 1 15.694 82.816L18.169 81.769zM21.713 88.462C21.429 88.598 21.039 88.784 20.647 88.749L18.907 81.064C18.842 80.779 18.578 80.646 18.309 80.757L15.982 81.742C16.602 80.805 17.908 79.713 18.311 79.263L13.357 50.91 1.485 55.936A1.1 1.1 0 0 1 1.16 56.018L14.382 44.89zM37.129 61.631L46.048 53.846 39.311 64.665zM39.486 86.967L23.765 92.118C30.733 86.326 39.638 78.907 47.736 72.148zM98.23 86.475L40.604 86.768 49.525 70.742zM99.02 85.784L50.25 70.055A46403 46403 0 0 0 69.246 54.201zM49.038 69.889A0.4 0.4 0 0 0 48.934 70.001 13656 13656 0 0 1 24.16 90.65L46.208 55.246zM60.498 60.363L49.812 69.277 47.014 54.795zM55.514 57.355L47.55 54.066 56.358 55.515zM79.921 8.222C79.813 9.295 74.361 58.34 74.361 58.34L69.605 53.3A0.464 0.464 0 0 0 69.001 53.262L61.246 59.737C61.207 59.702 56.319 57.694 56.319 57.694L63.139 42.826C63.143 42.824 79.249 9.773 79.921 8.222M32.224 7.136C32.33 7.194 32.434 7.285 32.531 7.413L60.976 45.447 56.734 54.694 45.979 52.923A0.9 0.9 0 0 0 45.62 53.027L43.274 55.084zM26.009 46.159L31.351 7.717C31.364 7.633 31.381 7.557 31.407 7.489L42.525 55.736 36.616 60.917z" fill="white"></path></g></svg></g></svg></g></svg></g><defs><mask></mask></defs><mask><g id="SvgjsG1203"><svg viewBox="0 0 395.5199999999999 101.23465845478898" height="101.23465845478898" width="395.5199999999999"><g><svg viewBox="0 0 613.4335024104357 157.01034360144985" height="101.23465845478898" width="395.5199999999999"><g><rect width="5.7578506028974585" height="114.17901253216866" x="197.08274447011044" y="21.415665534640596" fill="black" opacity="1" stroke-width="0" stroke="transparent" fill-opacity="1" class="rect-yte-0" rx="1%" id="SvgjsRect1202" data-palette-color="url(#c702d91e-f590-4653-8d77-33b599a3d1d8)"></rect></g><g transform="matrix(1,0,0,1,217.9135024104358,21.69969292899922)"><svg viewBox="0 0 395.52 113.61095774345141" height="113.61095774345141" width="395.52"><g id="SvgjsG1201"><svg viewBox="0 0 395.52 113.61095774345141" height="113.61095774345141" width="395.52" id="SvgjsSvg1200"><g><svg viewBox="0 0 395.52 63.847690309171206" height="63.847690309171206" width="395.52"><g transform="matrix(1,0,0,1,0,0)"><svg width="395.52" viewBox="3.98 -39.5 283.25 45.51" height="63.847690309171206" data-palette-color="url(#c702d91e-f590-4653-8d77-33b599a3d1d8)"><g class="wordmark-text-0" data-fill-palette-color="primary" id="SvgjsG1199"><path d="M29.22-4.49L29.22 0 3.98 0 3.98-35.16 29.22-35.16 29.22-30.66 13.67-30.66 13.67-19.8 25.68-19.8 25.68-15.33 13.67-15.33 13.67-4.49 29.22-4.49ZM63.11-38.57L63.11 0 59.93 0 56.27-6.13Q55.73-4.59 54.79-3.34 53.85-2.1 52.62-1.21 51.39-0.32 49.91 0.17 48.44 0.66 46.8 0.66L46.8 0.66Q43.58 0.66 41.04-0.49 38.5-1.64 36.74-3.63 34.98-5.62 34.06-8.3 33.13-10.99 33.13-14.06L33.13-14.06Q33.13-17.14 34.06-19.82 34.98-22.51 36.74-24.49 38.5-26.46 41.04-27.61 43.58-28.76 46.8-28.76L46.8-28.76Q49.27-28.76 51.33-27.81 53.39-26.86 54.86-24.83L54.86-24.83 54.86-38.57 63.11-38.57ZM54.81-14.06L54.81-14.06Q54.81-15.04 54.66-16.21 54.51-17.38 54.2-18.58 53.88-19.78 53.37-20.9 52.85-22.02 52.11-22.9 51.36-23.78 50.38-24.3 49.39-24.83 48.12-24.83L48.12-24.83Q46.73-24.83 45.7-24.33 44.68-23.83 43.94-22.99 43.21-22.14 42.73-21.04 42.26-19.95 41.99-18.75 41.72-17.55 41.61-16.35 41.5-15.14 41.5-14.06L41.5-14.06Q41.5-12.99 41.61-11.78 41.72-10.57 41.99-9.38 42.26-8.18 42.73-7.07 43.21-5.96 43.94-5.11 44.68-4.27 45.7-3.77 46.73-3.27 48.12-3.27L48.12-3.27Q49.51-3.27 50.56-3.76 51.61-4.25 52.35-5.09 53.1-5.93 53.57-7.02 54.05-8.11 54.32-9.31 54.59-10.52 54.7-11.74 54.81-12.96 54.81-14.06ZM78.66-35.01L78.66-35.01Q78.66-34.08 78.3-33.25 77.95-32.42 77.34-31.81 76.73-31.2 75.9-30.85 75.07-30.49 74.14-30.49L74.14-30.49Q73.21-30.49 72.39-30.85 71.58-31.2 70.97-31.81 70.36-32.42 70-33.25 69.65-34.08 69.65-35.01L69.65-35.01Q69.65-35.94 70-36.76 70.36-37.57 70.97-38.18 71.58-38.79 72.39-39.15 73.21-39.5 74.14-39.5L74.14-39.5Q75.07-39.5 75.9-39.15 76.73-38.79 77.34-38.18 77.95-37.57 78.3-36.76 78.66-35.94 78.66-35.01ZM78.29-28.17L78.29 0 70.01 0 70.01-28.17 78.29-28.17ZM95.82-24.93L95.82 0 87.54 0 87.54-24.93 82.41-24.93 82.41-28.2 87.54-28.2 87.54-38.57 95.82-38.57 95.82-28.2 104.36-28.2 104.36-24.93 95.82-24.93ZM140.66-26.44L140.66-26.44 136.49-24.68Q136-26.27 135.18-27.59 134.37-28.91 133.23-29.85 132.09-30.79 130.65-31.31 129.21-31.84 127.5-31.84L127.5-31.84Q125.67-31.84 124.15-31.23 122.62-30.62 121.41-29.58 120.2-28.54 119.3-27.15 118.4-25.76 117.8-24.18 117.2-22.61 116.9-20.92 116.59-19.24 116.59-17.63L116.59-17.63Q116.59-15.06 117.19-12.52 117.79-9.99 119.09-7.96 120.4-5.93 122.48-4.68 124.55-3.42 127.5-3.42L127.5-3.42Q129.12-3.42 130.02-4.14 130.92-4.86 130.92-6.67L130.92-6.67 130.92-17.46 140.62-17.46 140.62 0 137.81 0 136.1-2.76Q133.75-0.98 130.93-0.13 128.12 0.71 125.19 0.71L125.19 0.71Q122.6 0.71 120.22 0.07 117.84-0.56 115.79-1.73 113.74-2.91 112.06-4.57 110.39-6.23 109.21-8.25 108.02-10.28 107.38-12.66 106.73-15.04 106.73-17.63L106.73-17.63Q106.73-20.21 107.38-22.6 108.02-24.98 109.21-27.01 110.39-29.05 112.06-30.71 113.74-32.37 115.79-33.54 117.84-34.72 120.22-35.35 122.6-35.99 125.19-35.99L125.19-35.99Q127.68-35.99 130.06-35.4 132.44-34.81 134.49-33.63 136.54-32.45 138.14-30.65 139.74-28.86 140.66-26.44ZM153.72-13.38L153.72-13.38Q155.24-13.04 156.75-12.84 158.26-12.65 159.8-12.65L159.8-12.65Q161.41-12.65 162.79-12.95 164.17-13.26 165.19-13.98 166.2-14.7 166.78-15.89 167.37-17.09 167.37-18.87L167.37-18.87Q167.37-20.31 166.98-21.51 166.59-22.71 165.82-23.56 165.05-24.41 163.93-24.89 162.8-25.37 161.32-25.37L161.32-25.37Q159.92-25.37 158.81-24.85 157.7-24.34 156.86-23.47 156.02-22.61 155.42-21.46 154.82-20.31 154.43-19.07 154.04-17.82 153.87-16.55 153.7-15.28 153.7-14.16L153.7-14.16Q153.7-13.96 153.7-13.77 153.7-13.57 153.72-13.38ZM174.06-18.95L174.06-18.95Q174.06-17.21 173.5-15.86 172.94-14.5 171.97-13.48 171.01-12.45 169.74-11.74 168.47-11.04 167.03-10.58 165.59-10.13 164.06-9.94 162.54-9.74 161.1-9.74L161.1-9.74Q159.26-9.74 157.48-10 155.7-10.25 153.97-10.82L153.97-10.82Q154.24-9.2 154.82-7.75 155.41-6.3 156.38-5.21 157.36-4.13 158.79-3.49 160.22-2.86 162.17-2.86L162.17-2.86Q163.46-2.86 164.64-3.25 165.81-3.64 166.78-4.35 167.76-5.05 168.51-6.03 169.25-7.01 169.71-8.2L169.71-8.2 173.28-6.88Q172.47-4.96 171.07-3.55 169.67-2.15 167.9-1.23 166.13-0.32 164.14 0.12 162.15 0.56 160.19 0.56L160.19 0.56Q156.97 0.56 154.24-0.52 151.5-1.61 149.52-3.56 147.55-5.52 146.42-8.23 145.3-10.94 145.3-14.16L145.3-14.16Q145.3-17.38 146.42-20.09 147.55-22.8 149.52-24.76 151.5-26.71 154.24-27.8 156.97-28.88 160.19-28.88L160.19-28.88Q161.76-28.88 163.39-28.66 165.03-28.44 166.56-27.97 168.1-27.49 169.47-26.73 170.84-25.98 171.85-24.87 172.86-23.75 173.46-22.29 174.06-20.83 174.06-18.95ZM208.04-16.16L208.04-16.16Q208.04-13.31 207.35-10.21 206.65-7.1 205.4-4.13 204.16-1.15 202.43 1.48 200.69 4.1 198.62 6.01L198.62 6.01 195.52 4.32Q196.18 3.1 196.76 1.59 197.35 0.07 197.82-1.62 198.3-3.32 198.68-5.13 199.06-6.93 199.31-8.7 199.57-10.47 199.7-12.15 199.84-13.82 199.84-15.26L199.84-15.26Q199.84-16.21 199.77-17.3 199.69-18.38 199.46-19.47 199.23-20.56 198.84-21.56 198.45-22.56 197.8-23.32 197.15-24.07 196.24-24.54 195.32-25 194.08-25L194.08-25Q192.86-25 191.9-24.45 190.95-23.9 190.22-23.01 189.49-22.12 188.96-20.97 188.44-19.82 188.11-18.62 187.78-17.41 187.63-16.24 187.49-15.06 187.49-14.14L187.49-14.14 187.49 0 179.21 0 179.21-28.2 182.38-28.2 186.17-21.63Q186.85-23.27 187.88-24.61 188.9-25.95 190.19-26.9 191.49-27.86 193.06-28.37 194.64-28.88 196.47-28.88L196.47-28.88Q199.4-28.88 201.57-27.93 203.74-26.98 205.19-25.28 206.63-23.58 207.33-21.25 208.04-18.92 208.04-16.16ZM222.15-35.01L222.15-35.01Q222.15-34.08 221.8-33.25 221.44-32.42 220.83-31.81 220.22-31.2 219.39-30.85 218.56-30.49 217.63-30.49L217.63-30.49Q216.71-30.49 215.89-30.85 215.07-31.2 214.46-31.81 213.85-32.42 213.5-33.25 213.14-34.08 213.14-35.01L213.14-35.01Q213.14-35.94 213.5-36.76 213.85-37.57 214.46-38.18 215.07-38.79 215.89-39.15 216.71-39.5 217.63-39.5L217.63-39.5Q218.56-39.5 219.39-39.15 220.22-38.79 220.83-38.18 221.44-37.57 221.8-36.76 222.15-35.94 222.15-35.01ZM221.78-28.17L221.78 0 213.51 0 213.51-28.17 221.78-28.17ZM227.25-12.06L227.25-12.06Q227.25-13.99 227.58-16.06 227.91-18.14 228.53-20.21 229.15-22.29 230.03-24.32 230.91-26.34 232.01-28.2L232.01-28.2 238.04-28.2Q237.43-26.37 236.96-24.38 236.48-22.39 236.15-20.4 235.82-18.41 235.64-16.5 235.45-14.6 235.45-12.96L235.45-12.96Q235.45-12.01 235.54-10.93 235.62-9.84 235.84-8.75 236.06-7.67 236.47-6.67 236.87-5.66 237.5-4.9 238.14-4.13 239.05-3.67 239.97-3.22 241.22-3.22L241.22-3.22Q242.44-3.22 243.4-3.77 244.36-4.32 245.1-5.21 245.83-6.1 246.34-7.25 246.86-8.4 247.18-9.61 247.51-10.82 247.67-11.98 247.83-13.13 247.83-14.06L247.83-14.06 247.83-28.2 256.08-28.2 256.08 0 252.91 0 249.13-6.57Q248.42-4.93 247.4-3.6 246.39-2.27 245.1-1.32 243.8-0.37 242.23 0.15 240.65 0.66 238.82 0.66L238.82 0.66Q235.89 0.66 233.72-0.29 231.55-1.25 230.11-2.93 228.67-4.61 227.96-6.95 227.25-9.28 227.25-12.06ZM287.23-9.01L287.23-9.01Q287.23-7.15 286.7-5.71 286.16-4.27 285.23-3.21 284.3-2.15 283.03-1.43 281.76-0.71 280.31-0.27 278.86 0.17 277.27 0.37 275.69 0.56 274.12 0.56L274.12 0.56Q272.02 0.56 270.41 0.29 268.8 0.02 267.34-0.57 265.87-1.17 264.42-2.12 262.97-3.08 261.18-4.44L261.18-4.44 265.99-8.37Q266.65-7.13 267.74-6.12 268.83-5.1 270-4.37 271.17-3.64 272.27-3.25 273.37-2.86 274.05-2.86L274.05-2.86Q274.61-2.86 275.32-2.89 276.03-2.93 276.76-3.04 277.49-3.15 278.2-3.37 278.91-3.59 279.46-3.97 280.01-4.35 280.34-4.92 280.67-5.49 280.67-6.3L280.67-6.3Q280.67-7.13 280.24-7.75 279.81-8.37 279.13-8.84 278.44-9.3 277.57-9.62 276.69-9.94 275.8-10.18 274.9-10.42 274.07-10.61 273.24-10.79 272.63-10.96L272.63-10.96Q271.51-11.28 270.27-11.61 269.02-11.94 267.8-12.37 266.58-12.79 265.47-13.38 264.36-13.96 263.52-14.78 262.67-15.6 262.17-16.71 261.67-17.82 261.67-19.31L261.67-19.31Q261.67-22.05 262.76-23.89 263.84-25.73 265.63-26.84 267.41-27.95 269.68-28.42 271.95-28.88 274.29-28.88L274.29-28.88Q275.91-28.88 277.69-28.55 279.47-28.22 281.15-27.58 282.84-26.93 284.3-26 285.77-25.07 286.75-23.88L286.75-23.88 281.94-19.92Q281.4-21.39 280.53-22.44 279.67-23.49 278.65-24.16 277.64-24.83 276.58-25.15 275.51-25.46 274.61-25.46L274.61-25.46Q273.73-25.46 272.63-25.39 271.54-25.32 270.57-24.98 269.61-24.63 268.94-23.94 268.26-23.24 268.26-22.02L268.26-22.02Q268.26-21.14 268.67-20.52 269.07-19.9 269.73-19.45 270.39-18.99 271.23-18.69 272.07-18.38 272.95-18.15 273.83-17.92 274.66-17.75 275.49-17.58 276.15-17.38L276.15-17.38Q277.27-17.07 278.53-16.74 279.79-16.41 281.01-15.98 282.23-15.55 283.36-14.98 284.5-14.4 285.35-13.57 286.21-12.74 286.72-11.63 287.23-10.52 287.23-9.01Z" fill="black"></path></g></svg></g></svg></g><g transform="matrix(1,0,0,1,0,78.9205976465991)"><svg viewBox="0 0 232.96128000000002 34.6903600968523" height="34.6903600968523" width="232.96128000000002"><g transform="matrix(1,0,0,1,0,0)"><svg width="232.96128000000002" viewBox="-0.85 -38 325.18 49.199999999999996" height="34.6903600968523" data-palette-color="#375a82"><g class="slogan-text-1" data-fill-palette-color="secondary" id="SvgjsG1198"><path d="M6.15 0L-0.85 0 13.9-35.45 14.4-35.45 29.2 0 22.4 0 20.45-5.05 8-5.05 6.15 0ZM14.1-22.2L13.3-19.4 9.8-9.9 18.6-9.9 14.95-19.4 14.1-22.2ZM38.85-28.95L31.85-28.95 31.85-35.6 38.85-35.6 38.85-28.95ZM38.6 0L32.1 0 32.1-24.9 38.6-24.9 38.6 0Z" fill="black"></path><path d="M58.8 0L52.4 0 52.4-34.85 58.8-34.85 58.8 0ZM72.94 0L66.55 0 66.55-24.9 72.3-24.9 72.44-21.6Q73.42-23.1 75.16-24.3 76.9-25.5 79.8-25.5L79.8-25.5Q82.32-25.5 84-24.38 85.67-23.25 86.52-21.2L86.52-21.2Q87.47-22.78 89.26-24.14 91.05-25.5 94.25-25.5L94.25-25.5Q97.99-25.5 99.85-23.1 101.69-20.7 101.69-16.45L101.69-16.45 101.69 0 95.35 0 95.35-15.8Q95.35-17.88 94.55-19.16 93.75-20.45 91.94-20.45L91.94-20.45Q90.19-20.45 88.77-19.16 87.35-17.88 87.35-15.8L87.35-15.8 87.35 0 80.94 0 80.94-15.8Q80.94-17.88 80.03-19.21 79.12-20.55 77.35-20.55L77.35-20.55Q75.55-20.55 74.25-19.21 72.94-17.88 72.94-15.8L72.94-15.8 72.94 0ZM113.89 0.7L113.89 0.7Q111.59 0.7 110.08-0.33 108.57-1.35 107.83-3.05 107.09-4.75 107.09-6.8L107.09-6.8Q107.09-7.95 107.68-9.33 108.27-10.7 109.77-11.95 111.27-13.2 113.99-14 116.72-14.8 120.99-14.8L120.99-14.8 120.99-15.95Q120.99-17.8 120.1-19.03 119.22-20.25 116.54-20.25L116.54-20.25Q114.59-20.25 112.73-19.59 110.87-18.93 109.99-17.95L109.99-17.95 107.99-22.75Q109.49-23.78 112.01-24.64 114.52-25.5 117.59-25.5L117.59-25.5Q121.29-25.5 123.34-24.38 125.39-23.25 126.22-21.19 127.04-19.13 127.04-16.35L127.04-16.35 127.04 0 121.69 0 121.24-3.55Q118.64 0.7 113.89 0.7ZM116.54-4.1L116.54-4.1Q117.67-4.1 118.96-5.01 120.24-5.93 120.99-7.35L120.99-7.35 120.99-10.9Q120.74-10.95 120.46-10.95 120.17-10.95 119.79-10.95L119.79-10.95Q118.42-10.95 116.91-10.64 115.39-10.33 114.34-9.55 113.29-8.78 113.29-7.4L113.29-7.4Q113.29-5.6 114.09-4.85 114.89-4.1 116.54-4.1ZM134.39 9L137.19 4.3Q138.09 4.85 139.38 5.3 140.66 5.75 142.39 5.75L142.39 5.75Q145.59 5.75 147.19 4.09 148.79 2.43 148.79-1.2L148.79-1.2 148.79-5.1Q148.44-3.83 147.69-2.58 146.94-1.33 145.63-0.51 144.32 0.3 142.29 0.3L142.29 0.3Q139.46 0.3 137.18-0.99 134.89-2.27 133.54-5.08 132.19-7.88 132.19-12.4L132.19-12.4Q132.19-17 133.53-19.89 134.87-22.78 137.13-24.14 139.39-25.5 142.14-25.5L142.14-25.5Q145.21-25.5 146.84-23.95 148.46-22.4 148.79-20.6L148.79-20.6 149.49-24.9 154.39-24.9 154.39-1.2Q154.39 4.53 151.5 7.86 148.62 11.2 142.99 11.2L142.99 11.2Q139.96 11.2 137.74 10.44 135.51 9.68 134.39 9L134.39 9ZM143.54-4.6L143.54-4.6Q145.71-4.6 146.95-6.66 148.19-8.72 148.19-12.5L148.19-12.5Q148.19-16.07 147.12-18.26 146.04-20.45 143.74-20.45L143.74-20.45Q142.46-20.45 141.3-19.69 140.14-18.93 139.39-17.18 138.64-15.43 138.64-12.45L138.64-12.45Q138.64-8.4 140.03-6.5 141.41-4.6 143.54-4.6ZM171.74 0.65L171.74 0.65Q167.54 0.65 164.96-1.11 162.39-2.88 161.21-5.79 160.04-8.7 160.04-12.15L160.04-12.15Q160.04-15.78 161.38-18.81 162.71-21.85 165.3-23.68 167.89-25.5 171.64-25.5L171.64-25.5Q177.24-25.5 179.46-22.26 181.69-19.03 181.69-13.1L181.69-13.1Q181.69-12.58 181.66-11.78 181.64-10.98 181.59-10.4L181.59-10.4 166.59-10.4Q166.74-7.45 168.25-5.78 169.76-4.1 172.79-4.1L172.79-4.1Q174.34-4.1 176.11-4.79 177.89-5.48 178.74-6.45L178.74-6.45 180.74-1.7Q179.74-1.03 177.58-0.19 175.41 0.65 171.74 0.65ZM166.54-14.3L166.54-14.3 175.34-14.3Q175.34-16.93 174.88-18.31 174.41-19.7 173.61-20.23 172.81-20.75 171.79-20.75L171.79-20.75Q169.24-20.75 167.96-18.86 166.69-16.98 166.54-14.3Z" fill="black"></path><path d="M214.44 0L195.24 0 195.24-34.85 213.44-34.85 213.44-29.4 201.49-29.4 201.49-21.25 210.99-21.25 210.99-15.95 201.49-15.95 201.49-5.65 214.44-5.65 214.44 0ZM228.53 0.7L228.53 0.7Q225.51 0.7 223.28-0.93 221.06-2.55 219.85-5.5 218.64-8.45 218.64-12.4L218.64-12.4Q218.64-18.55 221.15-22.03 223.66-25.5 228.64-25.5L228.64-25.5Q231.19-25.5 232.95-24.24 234.71-22.98 235.24-20.6L235.24-20.6 234.78-24.25 234.78-38 240.69-38 240.69 0 235.24 0 235.24-5.1Q234.56-2.53 232.86-0.91 231.16 0.7 228.53 0.7ZM229.99-4.25L229.99-4.25Q231.78-4.25 233.21-6.14 234.64-8.03 234.64-12.3L234.64-12.3Q234.64-16.2 233.53-18.32 232.44-20.45 230.14-20.45L230.14-20.45Q228.96-20.45 227.8-19.73 226.64-19 225.86-17.24 225.09-15.48 225.09-12.4L225.09-12.4Q225.09-8.28 226.51-6.26 227.94-4.25 229.99-4.25ZM255.08-28.95L248.08-28.95 248.08-35.6 255.08-35.6 255.08-28.95ZM254.83 0L248.33 0 248.33-24.9 254.83-24.9 254.83 0ZM270.48 0.75L270.48 0.75Q266.26 0.75 264.77-1.45 263.28-3.65 263.28-8.1L263.28-8.1 263.28-19.65 260.03-19.65 260.03-24.9 263.53-24.9 263.88-30.15 269.33-32.5 269.33-24.9 275.48-24.9 275.48-19.65 269.33-19.65 269.33-8.25Q269.33-6.08 269.94-5.24 270.56-4.4 271.63-4.4L271.63-4.4Q272.73-4.4 273.96-4.98 275.18-5.55 275.88-6.15L275.88-6.15 277.08-1.1Q276.31-0.55 275.07-0.14 273.83 0.28 272.57 0.51 271.31 0.75 270.48 0.75ZM291.63 0.5L291.63 0.5Q286.13 0.5 283.13-2.95 280.13-6.4 280.13-12.5L280.13-12.5Q280.13-18.65 283.23-22.08 286.33-25.5 291.83-25.5L291.83-25.5Q297.35-25.5 300.24-21.96 303.13-18.43 303.13-12.5L303.13-12.5Q303.13-6.58 300.14-3.04 297.15 0.5 291.63 0.5ZM291.73-4.5L291.73-4.5Q296.48-4.5 296.48-12.5L296.48-12.5Q296.48-20.55 291.73-20.55L291.73-20.55Q289.38-20.55 288.08-18.69 286.78-16.82 286.78-12.5L286.78-12.5Q286.78-8.2 288.08-6.35 289.38-4.5 291.73-4.5ZM314.93 0L308.68 0 308.68-24.9 314.33-24.9 314.63-20.5Q315.03-21.48 315.86-22.58 316.7-23.68 318.19-24.44 319.68-25.2 322.03-25.2L322.03-25.2Q322.75-25.2 323.3-25.1 323.85-25 324.33-24.8L324.33-24.8 322.93-18.25Q322.13-19.05 320.48-19.05L320.48-19.05Q318.55-19.05 317.33-18.26 316.1-17.48 315.51-16.5 314.93-15.53 314.93-15L314.93-15 314.93 0Z" fill="black"></path></g></svg></g></svg></g></svg></g></svg></g><g><svg viewBox="0 0 182.00983713268255 157.01034360144985" height="157.01034360144985" width="182.00983713268255"><g><svg xmlns="http://www.w3.org/2000/svg" xmlns:xlink="http://www.w3.org/1999/xlink" version="1.1" x="0" y="0" viewBox="0.507 7.136 98.51299999999999 84.982" enable-background="new 0 0 100 100" xml:space="preserve" height="157.01034360144985" width="182.00983713268255" class="icon-icon-0" data-fill-palette-color="accent" id="SvgjsSvg1197"><g fill="black"><path d="M22.048 42.728L25.829 47.455 38.642 65.239A0.42 0.42 0 0 0 38.849 65.402L23.004 90.852 15.187 44.39zM0.507 55.422A0.9 0.9 0 0 1 0.708 54.928L12.118 40.129A0.635 0.635 0 0 1 12.785 39.889L21.121 41.797C21.362 41.887 21.356 41.907 21.425 41.978L14.778 43.589C14.538 43.65 14.484 43.67 14.343 43.778zM19.537 87.812L15.759 82.927A0.4 0.4 0 0 1 15.694 82.816L18.169 81.769zM21.713 88.462C21.429 88.598 21.039 88.784 20.647 88.749L18.907 81.064C18.842 80.779 18.578 80.646 18.309 80.757L15.982 81.742C16.602 80.805 17.908 79.713 18.311 79.263L13.357 50.91 1.485 55.936A1.1 1.1 0 0 1 1.16 56.018L14.382 44.89zM37.129 61.631L46.048 53.846 39.311 64.665zM39.486 86.967L23.765 92.118C30.733 86.326 39.638 78.907 47.736 72.148zM98.23 86.475L40.604 86.768 49.525 70.742zM99.02 85.784L50.25 70.055A46403 46403 0 0 0 69.246 54.201zM49.038 69.889A0.4 0.4 0 0 0 48.934 70.001 13656 13656 0 0 1 24.16 90.65L46.208 55.246zM60.498 60.363L49.812 69.277 47.014 54.795zM55.514 57.355L47.55 54.066 56.358 55.515zM79.921 8.222C79.813 9.295 74.361 58.34 74.361 58.34L69.605 53.3A0.464 0.464 0 0 0 69.001 53.262L61.246 59.737C61.207 59.702 56.319 57.694 56.319 57.694L63.139 42.826C63.143 42.824 79.249 9.773 79.921 8.222M32.224 7.136C32.33 7.194 32.434 7.285 32.531 7.413L60.976 45.447 56.734 54.694 45.979 52.923A0.9 0.9 0 0 0 45.62 53.027L43.274 55.084zM26.009 46.159L31.351 7.717C31.364 7.633 31.381 7.557 31.407 7.489L42.525 55.736 36.616 60.917z" fill="black"></path></g></svg></g></svg></g></svg></g><defs><mask></mask></defs></svg><rect width="395.5199999999999" height="101.23465845478898" fill="black" stroke="none" visibility="hidden"></rect></g></mask></svg><rect width="395.5199999999999" height="101.23465845478898" fill="black" stroke="none" visibility="hidden"></rect></g></mask><linearGradient x1="0.054" x2="0.941" y1="0.5" y2="0.5" id="5e3bfa5b-aa45-46ba-a09f-3d3e4dfc281f"><stop stop-color="#0f3054" offset="0"></stop><stop stop-color="#3b8dcb" offset="0.498"></stop><stop stop-color="#0f3054" offset="1"></stop></linearGradient><rect width="395.5199999999999" height="101.23465845478898" fill="url(#5e3bfa5b-aa45-46ba-a09f-3d3e4dfc281f)" mask="url(#2e97ac8b-b003-4308-93a3-352d3e4ab67d)" data-fill-palette-color="accent"></rect></svg><rect width="395.5199999999999" height="101.23465845478898" fill="none" stroke="none" visibility="hidden"></rect></g></svg></g></svg>